<svg width="36" height="36" viewBox="0 0 36 36" fill="none" xmlns="http://www.w3.org/2000/svg">
<path d="M27 25.125C26.7911 25.125 26.5863 25.0668 26.4086 24.957C26.2308 24.8471 26.0872 24.69 25.9938 24.5031C25.9003 24.3163 25.8608 24.1071 25.8796 23.899C25.8983 23.6909 25.9746 23.4921 26.1 23.325C27.2468 21.7865 27.8663 19.9189 27.8663 18C27.8663 16.0811 27.2468 14.2135 26.1 12.675C25.921 12.4363 25.8441 12.1363 25.8863 11.8409C25.9285 11.5455 26.0863 11.279 26.325 11.1C26.5637 10.921 26.8637 10.8441 27.1591 10.8863C27.4545 10.9285 27.721 11.0863 27.9 11.325C30.84 15.255 30.84 20.745 27.9 24.675C27.675 24.975 27.345 25.125 27 25.125Z" fill="#C83838"/>
<path d="M29.742 28.875C29.5331 28.875 29.3283 28.8168 29.1506 28.707C28.9728 28.5971 28.8292 28.44 28.7358 28.2531C28.6423 28.0663 28.6028 27.8571 28.6215 27.649C28.6403 27.4409 28.7166 27.2421 28.842 27.075C32.847 21.735 32.847 14.265 28.842 8.925C28.663 8.68631 28.5861 8.38627 28.6283 8.0909C28.6705 7.79553 28.8283 7.52902 29.067 7.35C29.3057 7.17098 29.6057 7.09411 29.9011 7.13631C30.1965 7.17851 30.463 7.33631 30.642 7.575C35.247 13.71 35.247 22.29 30.642 28.425C30.432 28.725 30.087 28.875 29.742 28.875ZM21.03 5.673C19.35 4.743 17.205 4.983 15.015 6.348L10.635 9.093C10.335 9.273 9.99 9.378 9.645 9.378H7.5C3.87 9.378 1.875 11.373 1.875 15.003V21.003C1.875 24.633 3.87 26.628 7.5 26.628H9.645C9.99 26.628 10.335 26.733 10.635 26.913L15.015 29.658C16.335 30.483 17.625 30.888 18.825 30.888C19.5954 30.8948 20.3546 30.7037 21.03 30.333C22.695 29.403 23.625 27.468 23.625 24.888V11.118C23.625 8.538 22.695 6.603 21.03 5.673Z" fill="#C83838"/>
</svg>
