<svg width="24" height="24" viewBox="0 0 24 24" fill="none" xmlns="http://www.w3.org/2000/svg">
<path fill-rule="evenodd" clip-rule="evenodd" d="M15.88 20.9201C15.91 21.0801 15.82 21.2501 15.67 21.3101C14.53 21.7601 13.3 22.0001 12.01 22.0001C9.88726 22.0059 7.81887 21.3293 6.10998 20.0701C5.96998 19.9701 5.92998 19.7701 6.01998 19.6201C6.56998 18.6401 8.71998 15.4901 13.47 13.7301C13.65 13.6601 13.85 13.7501 13.91 13.9301C15.11 17.1201 15.67 19.8201 15.88 20.9201ZM21.82 13.8881C21.3614 16.3069 20.0171 18.4677 18.05 19.9481C17.84 20.1081 17.54 19.9881 17.49 19.7381C17.28 18.6581 16.77 16.3281 15.79 13.5581C15.72 13.3481 15.86 13.1181 16.08 13.0881C18.57 12.7881 20.75 13.2681 21.57 13.4881C21.74 13.5481 21.85 13.7181 21.82 13.8881Z" fill="white"/>
<path opacity="0.4" fill-rule="evenodd" clip-rule="evenodd" d="M21.59 11.8187C20.57 11.6387 17.97 11.2587 15.31 11.5487C15.15 11.5687 15.01 11.4787 14.94 11.3287C14.9 11.2387 14.87 11.1487 14.83 11.0587C14.67 10.6887 14.5 10.3087 14.33 9.93868C14.24 9.75868 14.33 9.53868 14.51 9.45868C17.31 8.24868 18.87 6.68868 19.48 5.98868C19.63 5.81868 19.89 5.82868 20.03 6.00868C21.2102 7.5797 21.896 9.4665 22 11.4287C22.01 11.6787 21.81 11.8587 21.59 11.8187Z" fill="white"/>
<path fill-rule="evenodd" clip-rule="evenodd" d="M18.44 4.79C17.92 5.42 16.46 6.92 13.69 8.02C13.6099 8.05238 13.5206 8.05394 13.4393 8.0244C13.3581 7.99486 13.2906 7.9363 13.25 7.86C12.2587 6.08262 11.1669 4.36316 9.98001 2.71C9.945 2.66074 9.92303 2.60341 9.91615 2.54337C9.90928 2.48332 9.91771 2.42252 9.94067 2.36661C9.96363 2.31071 10.0004 2.26152 10.0475 2.22365C10.0946 2.18577 10.1505 2.16044 10.21 2.15C10.79 2.05 11.39 2 12.01 2C14.43 2 16.66 2.86 18.39 4.3C18.54 4.42 18.56 4.64 18.44 4.79ZM11.02 8.84C7.23001 9.79 3.88001 9.92 2.66001 9.94C2.43001 9.94 2.26001 9.72 2.32001 9.5C3.04001 6.7 4.96001 4.36 7.49001 3.07C7.64001 2.99 7.83001 3.04 7.93001 3.18C8.45001 3.9 9.86001 5.93 11.24 8.32C11.35 8.52 11.25 8.78 11.02 8.84Z" fill="white"/>
<path opacity="0.4" fill-rule="evenodd" clip-rule="evenodd" d="M12.92 11.5998C13.01 11.7898 12.9 12.0198 12.7 12.0898C8.27 13.5198 5.62 17.0698 4.82 18.2898C4.69 18.4898 4.41 18.4998 4.26 18.3198C2.85 16.5998 2 14.6298 2 12.2298V12.0498C2 11.8498 2.16 11.6898 2.36 11.6998C3.62 11.7498 7.73 11.5798 12 10.3498C12.16 10.2998 12.34 10.3798 12.41 10.5298C12.59 10.8898 12.76 11.2398 12.92 11.5998Z" fill="white"/>
</svg>
