<svg width="24" height="24" viewBox="0 0 24 24" fill="none" xmlns="http://www.w3.org/2000/svg">
<path opacity="0.4" d="M16.19 2H7.81C4.17 2 2 4.17 2 7.81V16.18C2 19.83 4.17 22 7.81 22H16.18C19.82 22 21.99 19.83 21.99 16.19V7.81C22 4.17 19.83 2 16.19 2Z" fill="white"/>
<path d="M12.0001 15.8809C12.5096 15.8809 13.0142 15.7805 13.4849 15.5856C13.9557 15.3906 14.3834 15.1048 14.7437 14.7445C15.104 14.3842 15.3898 13.9565 15.5848 13.4857C15.7798 13.015 15.8801 12.5104 15.8801 12.0009C15.8801 11.4914 15.7798 10.9868 15.5848 10.5161C15.3898 10.0453 15.104 9.61762 14.7437 9.25733C14.3834 8.89704 13.9557 8.61124 13.4849 8.41625C13.0142 8.22126 12.5096 8.1209 12.0001 8.1209C10.9711 8.1209 9.98418 8.52969 9.25654 9.25733C8.5289 9.98497 8.12012 10.9719 8.12012 12.0009C8.12012 13.0299 8.5289 14.0168 9.25654 14.7445C9.98418 15.4721 10.9711 15.8809 12.0001 15.8809ZM17.0001 7.4999C16.8684 7.50122 16.7378 7.47625 16.6159 7.42645C16.494 7.37665 16.3832 7.30304 16.2901 7.2099C16.2001 7.1099 16.1301 6.9999 16.0801 6.8799C16.0288 6.75972 16.0016 6.6306 16.0001 6.4999C16.0001 6.3699 16.0301 6.2399 16.0801 6.1199C16.1301 5.9899 16.2001 5.8899 16.2901 5.7899C16.5201 5.5599 16.8701 5.4499 17.1901 5.5199C17.2601 5.5299 17.3201 5.5499 17.3801 5.5799C17.4401 5.5999 17.5001 5.6299 17.5601 5.6699C17.6101 5.6999 17.6601 5.7499 17.7101 5.7899C17.8001 5.8899 17.8701 5.9899 17.9201 6.1199C17.9701 6.2399 18.0001 6.3699 18.0001 6.4999C18.0001 6.6299 17.9701 6.7599 17.9201 6.8799C17.8701 6.9999 17.8001 7.1099 17.7101 7.2099C17.6101 7.2999 17.5001 7.3699 17.3801 7.4199C17.2601 7.4699 17.1301 7.4999 17.0001 7.4999Z" fill="white"/>
</svg>
