<svg width="24" height="24" viewBox="0 0 24 24" fill="none" xmlns="http://www.w3.org/2000/svg">
<path opacity="0.4" d="M12 22C17.523 22 22 17.523 22 12C22 6.477 17.523 2 12 2C6.477 2 2 6.477 2 12C2 17.523 6.477 22 12 22Z" fill="white"/>
<path d="M17.48 11.4211C17.33 11.4211 17.18 11.3711 17.04 11.2811C14.06 9.14113 10.24 8.67113 6.83998 10.0311C6.6556 10.1034 6.45013 10.0997 6.26841 10.0211C6.08669 9.94237 5.94346 9.79501 5.86998 9.61113C5.71998 9.23113 5.90998 8.79113 6.28998 8.64113C10.17 7.10113 14.52 7.63113 17.92 10.0711C18.26 10.3111 18.33 10.7811 18.09 11.1211C17.95 11.3111 17.72 11.4211 17.48 11.4211Z" fill="white"/>
<path d="M15.91 14.1101C15.76 14.1101 15.61 14.0601 15.47 13.9701C14.4323 13.2234 13.223 12.7504 11.9541 12.5948C10.6851 12.4393 9.3974 12.6062 8.21002 13.0801C8.02558 13.1515 7.82045 13.1475 7.63894 13.0689C7.45744 12.9903 7.31415 12.8434 7.24002 12.6601C7.1678 12.4757 7.17142 12.2702 7.2501 12.0885C7.32878 11.9068 7.47614 11.7636 7.66002 11.6901C9.07992 11.1233 10.62 10.9241 12.1373 11.1112C13.6547 11.2982 15.1003 11.8654 16.34 12.7601C16.68 13.0001 16.75 13.4701 16.51 13.8101C16.37 14.0001 16.14 14.1101 15.91 14.1101ZM14.81 16.9001C14.66 16.9001 14.51 16.8501 14.37 16.7601C13.6159 16.22 12.7384 15.8775 11.8178 15.7639C10.8972 15.6504 9.96279 15.7694 9.10002 16.1101C8.91558 16.1815 8.71045 16.1775 8.52894 16.0989C8.34744 16.0203 8.20415 15.8734 8.13002 15.6901C8.0578 15.5057 8.06142 15.3002 8.1401 15.1185C8.21878 14.9368 8.36614 14.7936 8.55002 14.7201C10.79 13.8301 13.29 14.1401 15.24 15.5401C15.58 15.7801 15.65 16.2501 15.41 16.5901C15.3436 16.6875 15.254 16.7669 15.1492 16.821C15.0445 16.8751 14.9279 16.9023 14.81 16.9001Z" fill="white"/>
</svg>
