<svg width="24" height="24" viewBox="0 0 24 24" fill="none" xmlns="http://www.w3.org/2000/svg">
<path opacity="0.4" fill-rule="evenodd" clip-rule="evenodd" d="M5.04001 2.00007H20.5C21.05 2.00007 21.5 2.45007 21.5 3.00007V13.5901C21.5 13.8601 21.39 14.1101 21.21 14.3001L16.8 18.7101C16.7069 18.8032 16.5961 18.8768 16.4742 18.9266C16.3523 18.9764 16.2217 19.0014 16.09 19.0001H12.04C11.71 19.0001 11.39 19.1701 11.21 19.4501L9.80001 21.5601C9.61001 21.8401 9.30001 22.0101 8.97001 22.0101H7.51001C6.96001 22.0101 6.51001 21.5601 6.51001 21.0101V20.0101C6.51001 19.4601 6.06001 19.0101 5.51001 19.0101H3.51001C2.96001 19.0101 2.51001 18.5601 2.51001 18.0101V5.31007C2.51001 5.11007 2.57001 4.92007 2.68001 4.76007L4.22001 2.46007C4.30428 2.31816 4.42442 2.20093 4.56837 2.12019C4.71231 2.03944 4.87498 1.99801 5.04001 2.00007Z" fill="white"/>
<path fill-rule="evenodd" clip-rule="evenodd" d="M8.5 7.14031V12.8503C8.5 13.1703 8.76 13.4203 9.07 13.4203H10.21C10.53 13.4203 10.78 13.1603 10.78 12.8503V7.14031C10.78 7.06546 10.7653 6.99134 10.7366 6.92218C10.708 6.85303 10.666 6.79019 10.6131 6.73726C10.5601 6.68433 10.4973 6.64235 10.4281 6.6137C10.359 6.58506 10.2849 6.57031 10.21 6.57031H9.07C8.76 6.57031 8.5 6.83031 8.5 7.14031ZM14.21 7.14031V12.8503C14.21 13.1703 14.47 13.4203 14.78 13.4203H15.92C16.24 13.4203 16.49 13.1603 16.49 12.8503V7.14031C16.49 6.98914 16.4299 6.84416 16.3231 6.73726C16.2162 6.63037 16.0712 6.57031 15.92 6.57031H14.78C14.47 6.57031 14.21 6.83031 14.21 7.14031Z" fill="white"/>
</svg>
